<svg id="Layer_1" data-name="Layer 1" xmlns="http://www.w3.org/2000/svg" viewBox="0 0 369 131.46"><defs><style>.cls-1,.cls-2{fill:#000;}.cls-2{fill-rule:evenodd;}</style></defs><title>MIT new logo white landscape</title><path class="cls-1" d="M107.82,160.92q10.31,3.69,20.1,18.6,8-14.35,19.2-18.58,10.09,3.29,19.2,19.22,8.08-15.3,19.82-19.81-12.58,1.62-19.7,8.79a39.07,39.07,0,0,0-19-8.66q6.16-11.16,20.76-17.61-13.67,1.93-21.28,8.3Q138.8,144,125.29,143a38,38,0,0,1,21.21,17.46q-11.62,1.92-18.77,8.93-10.05-8-19.91-8.5Z" transform="translate(-80.24 -126.44)"/><path class="cls-1" d="M166.41,126.68s.43,0,1.22.16A67.13,67.13,0,0,1,213.52,201c-13.73.77-102.15,5-133.28-11a67.06,67.06,0,0,1,45.09-62.59q1.35-.38,2.76-.72s-31,10.8-34.4,62.44L200.27,189S204.29,149.17,166.41,126.68Z" transform="translate(-80.24 -126.44)"/><path class="cls-1" d="M212,207.35S158.52,224.3,86.2,218.07a55.15,55.15,0,0,1-3.87-10.68l.23,0Z" transform="translate(-80.24 -126.44)"/><path class="cls-1" d="M90,225.25H204.75a67.37,67.37,0,0,1-8.47,11.22l-.43,0C141.59,242.19,90,225.25,90,225.25Z" transform="translate(-80.24 -126.44)"/><path class="cls-1" d="M105.57,243.15s42.4,6.63,83.36,0c0,0-.25.23-.73.64a67,67,0,0,1-79.77,1.5C107.6,244.64,106.41,243.89,105.57,243.15Z" transform="translate(-80.24 -126.44)"/><polygon class="cls-2" points="161 35.19 168.48 35.19 168.48 12.81 168.58 12.81 175.44 26.08 176.98 26.08 183.85 12.81 183.95 12.81 183.95 35.19 191.43 35.19 191.43 0.21 184.26 0.21 176.21 14.6 168.17 0.21 161 0.21 161 35.19"/><path class="cls-2" d="M275.66,161.63h7.68l1.69-7.27h7.89l1.64,7.27h7.68l-9.17-35.19h-8.25Zm10.5-13,2.77-12.7h.1l2.71,12.7Z" transform="translate(-80.24 -126.44)"/><polygon class="cls-2" points="226.09 35.19 233.57 35.19 233.57 14.55 233.68 14.55 243.61 35.19 250.53 35.19 250.53 0.21 243.05 0.21 243.05 19.98 242.95 19.98 233.47 0.21 226.09 0.21 226.09 35.19"/><path class="cls-2" d="M337.54,126.64v23.1c0,8.71,5,12.35,12.24,12.35,8.3,0,12.24-4.77,12.24-12.45v-23h-7.94v23.67c0,3.18-1.23,5.17-4.3,5.17-2.82,0-4.3-2-4.3-4.76V126.64Z" transform="translate(-80.24 -126.44)"/><polygon class="cls-2" points="287.77 35.19 295.71 35.19 295.71 18.29 295.82 18.29 305.86 35.19 314.72 35.19 303.81 16.85 312.52 0.21 304.58 0.21 295.82 17.16 295.71 17.16 295.71 0.21 287.77 0.21 287.77 35.19"/><path class="cls-2" d="M395.67,161.63h7.69l1.69-7.27h7.89l1.64,7.27h7.68l-9.17-35.19h-8.25Zm10.5-13,2.77-12.7h.1l2.72,12.7Z" transform="translate(-80.24 -126.44)"/><path class="cls-2" d="M424.76,126.64v23.1c0,8.71,5,12.35,12.24,12.35,8.3,0,12.24-4.77,12.24-12.45v-23h-7.94v23.67c0,3.18-1.23,5.17-4.3,5.17-2.82,0-4.3-2-4.3-4.76V126.64Z" transform="translate(-80.24 -126.44)"/><polygon class="cls-2" points="166.77 108.97 172.51 108.97 172.51 88.06 178.28 88.06 178.28 83.69 161 83.69 161 88.06 166.77 88.06 166.77 108.97"/><polygon class="cls-2" points="181.54 108.97 196.6 108.97 196.6 104.6 187.27 104.6 187.27 98.31 195.63 98.31 195.63 93.94 187.27 93.94 187.27 88.06 196.26 88.06 196.26 83.69 181.54 83.69 181.54 108.97"/><path class="cls-2" d="M295.89,228.92a8.66,8.66,0,0,1-4.81,2c-3.55,0-5.48-2.92-5.48-8.29,0-5.55,2.48-8.1,5.77-8.1A8.45,8.45,0,0,1,295.7,216V211.2a12.35,12.35,0,0,0-5.7-1.41c-6.22,0-10.25,5.22-10.25,13.21,0,7.77,4.22,12.73,10.25,12.73a8.85,8.85,0,0,0,5.88-1.89Z" transform="translate(-80.24 -126.44)"/><polygon class="cls-2" points="220.09 108.97 225.82 108.97 225.82 98.38 232.15 98.38 232.15 108.97 237.88 108.97 237.88 83.69 232.15 83.69 232.15 94.02 225.82 94.02 225.82 83.69 220.09 83.69 220.09 108.97"/><polygon class="cls-2" points="243.1 108.97 248.5 108.97 248.5 94.05 248.57 94.05 255.75 108.97 260.75 108.97 260.75 83.69 255.34 83.69 255.34 97.97 255.27 97.97 248.43 83.69 243.1 83.69 243.1 108.97"/><path class="cls-2" d="M345.13,222.52c0,9.47,5.07,13.21,10,13.21,4.29,0,10-3.07,10-13,0-9.47-5.25-13-10-13C350.16,209.79,345.13,213.94,345.13,222.52Zm5.85.22c0-5,1-8,4.11-8,3.4,0,4.11,3.63,4.11,8,0,6.07-1.44,8-4.11,8C351.94,230.78,351,227.78,351,222.74Z" transform="translate(-80.24 -126.44)"/><polygon class="cls-2" points="288.86 108.97 303.85 108.97 303.85 104.41 294.6 104.41 294.6 83.69 288.86 83.69 288.86 108.97"/><path class="cls-2" d="M386,222.52c0,9.47,5.07,13.21,10,13.21,4.29,0,10-3.07,10-13,0-9.47-5.25-13-10-13C391,209.79,386,213.94,386,222.52Zm5.85.22c0-5,1-8,4.11-8,3.4,0,4.11,3.63,4.11,8,0,6.07-1.44,8-4.11,8C392.78,230.78,391.81,227.78,391.81,222.74Z" transform="translate(-80.24 -126.44)"/><path class="cls-2" d="M427.85,221.78h-8.58V226h2.85v4.25a5,5,0,0,1-2.44.67c-3.26,0-4.92-3.14-4.92-7.88,0-5.48,2.29-8.51,6.29-8.51,2.26,0,3.7.67,5.92,2.48v-5.25a12.64,12.64,0,0,0-6.7-2c-6.59,0-11.36,5.59-11.36,13.36,0,7.29,4.52,12.58,10.73,12.58a13.5,13.5,0,0,0,8.21-3Z" transform="translate(-80.24 -126.44)"/><polygon class="cls-2" points="356.75 108.97 362.63 108.97 362.63 97.42 368.96 83.69 362.85 83.69 359.71 91.46 355.9 83.69 349.75 83.69 356.75 97.42 356.75 108.97"/><rect class="cls-1" x="161" y="46.78" width="5.75" height="25.32"/><polygon class="cls-2" points="172.04 72.1 177.46 72.1 177.46 57.16 177.53 57.16 184.72 72.1 189.73 72.1 189.73 46.78 184.31 46.78 184.31 61.09 184.24 61.09 177.38 46.78 172.04 46.78 172.04 72.1"/><path class="cls-2" d="M274.34,196.86a11.76,11.76,0,0,0,6.19,2,7,7,0,0,0,7.34-7.08c0-6-8.19-9.68-8.19-12.68,0-1,1-1.74,2.34-1.74s2.37.41,4.89,1.82v-4.75a11.19,11.19,0,0,0-5.52-1.56c-4.11,0-7.27,2.82-7.27,6.45,0,6.15,7.9,8.93,7.9,12.64a2.15,2.15,0,0,1-2.34,2.11c-1.52,0-2.93-.7-5.34-2.67Z" transform="translate(-80.24 -126.44)"/><polygon class="cls-2" points="215.63 72.1 221.38 72.1 221.38 51.15 227.16 51.15 227.16 46.78 209.85 46.78 209.85 51.15 215.63 51.15 215.63 72.1"/><rect class="cls-1" x="230.5" y="46.78" width="5.75" height="25.32"/><polygon class="cls-2" points="245.36 72.1 251.1 72.1 251.1 51.15 256.89 51.15 256.89 46.78 239.58 46.78 239.58 51.15 245.36 51.15 245.36 72.1"/><path class="cls-2" d="M340.1,173.21v16.72c0,6.3,3.6,8.93,8.86,8.93,6,0,8.86-3.45,8.86-9V173.21h-5.74v17.13c0,2.3-.89,3.74-3.11,3.74-2,0-3.11-1.45-3.11-3.45V173.21Z" transform="translate(-80.24 -126.44)"/><polygon class="cls-2" points="286.28 72.1 292.03 72.1 292.03 51.15 297.81 51.15 297.81 46.78 280.5 46.78 280.5 51.15 286.28 51.15 286.28 72.1"/><polygon class="cls-2" points="301.07 72.1 316.16 72.1 316.16 67.72 306.82 67.72 306.82 61.42 315.19 61.42 315.19 57.05 306.82 57.05 306.82 51.15 315.82 51.15 315.82 46.78 301.07 46.78 301.07 72.1"/><path class="cls-2" d="M411.88,185.63c0,9.49,5.08,13.23,10,13.23,4.3,0,10-3.08,10-13,0-9.49-5.26-13-10-13C416.92,172.88,411.88,177,411.88,185.63Zm5.86.22c0-5,1-8,4.12-8,3.41,0,4.11,3.63,4.11,8,0,6.08-1.45,8-4.11,8C418.7,193.9,417.73,190.89,417.73,185.85Z" transform="translate(-80.24 -126.44)"/><polygon class="cls-2" points="355.65 72.1 361.4 72.1 361.4 61.49 368.7 61.49 368.7 57.12 361.4 57.12 361.4 51.15 368.96 51.15 368.96 46.78 355.65 46.78 355.65 72.1"/><path class="cls-2" d="M376.35,253.89a3.26,3.26,0,0,0-3.5-3.34,4,4,0,0,0-4.07,3.93,3.45,3.45,0,0,0,3.56,3.42A4,4,0,0,0,376.35,253.89Zm-2.18-.06c0,1-.61,2.36-1.82,2.36a1.46,1.46,0,0,1-1.4-1.58c0-.72.43-2.34,1.8-2.34A1.41,1.41,0,0,1,374.17,253.83Z" transform="translate(-80.24 -126.44)"/><polygon class="cls-2" points="315.24 120.68 312.85 120.68 309.27 127.38 307.56 120.68 305.09 120.68 301.64 131.32 303.91 131.32 306.3 123.93 306.33 123.93 308.2 131.32 309.27 131.32 313.2 124.13 313.23 124.13 313.56 131.32 315.74 131.32 315.24 120.68"/><path class="cls-2" d="M405.31,250.79a11,11,0,0,0-2.38-.24c-3.81,0-5.11,2.25-5.11,4.31,0,1.78,1,3,2.47,3a3.13,3.13,0,0,0,2-.79l-.09.65h2.1Zm-2.78,4.91a2.42,2.42,0,0,1-1.51.62c-.64,0-1-.5-1-1.36a2.48,2.48,0,0,1,3-2.64Z" transform="translate(-80.24 -126.44)"/><path class="cls-2" d="M409.74,250.67h-2.1l-1,7.08h2.1l.64-4.55a2.71,2.71,0,0,1,1.77-1.09c.56,0,.71.73.62,1.42l-.59,4.23h2.1l.61-4.38c.2-1.45-.23-2.82-1.86-2.82a3.72,3.72,0,0,0-2.41.92Z" transform="translate(-80.24 -126.44)"/><path class="cls-2" d="M423,250.67h-2.1l-.64,4.62a2.63,2.63,0,0,1-1.77,1c-.5,0-.76-.47-.56-1.89l.53-3.76h-2.1l-.64,4.49c-.22,1.48.4,2.71,2,2.71A3.62,3.62,0,0,0,420,257l-.12.8H422Z" transform="translate(-80.24 -126.44)"/><polygon class="cls-2" points="347.68 120.68 345.58 120.68 344.09 131.32 346.19 131.32 346.67 127.83 349.27 131.32 351.82 131.32 349.1 127.61 351.89 124.24 349.3 124.24 346.78 127.3 346.75 127.27 347.68 120.68"/><path class="cls-2" d="M440.28,250.79a11,11,0,0,0-2.38-.24c-3.81,0-5.11,2.25-5.11,4.31,0,1.78,1,3,2.47,3a3.12,3.12,0,0,0,2-.79l-.09.65h2.1Zm-2.78,4.91a2.42,2.42,0,0,1-1.51.62c-.64,0-1-.5-1-1.36a2.48,2.48,0,0,1,3-2.64Z" transform="translate(-80.24 -126.44)"/><path class="cls-2" d="M449.2,250.67h-2.1l-.64,4.62a2.63,2.63,0,0,1-1.77,1c-.5,0-.76-.47-.56-1.89l.53-3.76h-2.1l-.64,4.49c-.22,1.48.4,2.71,2,2.71a3.63,3.63,0,0,0,2.29-.92l-.13.8h2.1Z" transform="translate(-80.24 -126.44)"/><polygon class="cls-2" points="170.31 120.55 161.25 120.55 161 122.33 164.35 122.33 163.11 131.19 165.37 131.19 166.61 122.33 170.06 122.33 170.31 120.55"/><path class="cls-2" d="M255.7,254.38c.5-2.26-.7-4-2.91-4a3.84,3.84,0,0,0-3.82,3.9,3.26,3.26,0,0,0,3.51,3.45,7.19,7.19,0,0,0,2.46-.52l.37-1.76a7.51,7.51,0,0,1-2.61.72,1.54,1.54,0,0,1-1.62-1.83Zm-4.41-1.22c.31-.89.78-1.29,1.46-1.29a1,1,0,0,1,1,1.29Z" transform="translate(-80.24 -126.44)"/><polygon class="cls-2" points="195.16 120.55 192.88 120.55 190.02 126.81 189.98 126.81 188.4 120.55 187.3 120.55 183.92 126.81 183.89 126.81 182.77 120.55 180.64 120.55 182.8 131.33 183.74 131.33 187.31 124.75 189.02 131.33 189.94 131.33 195.16 120.55"/><path class="cls-2" d="M279.08,247H277l-1.49,10.64h2.1l.64-4.6a3,3,0,0,1,1.76-.89c.5,0,.71.45.65,1l-.64,4.54h2.1l.64-4.59c.23-1.67-.56-2.62-1.91-2.62a3.74,3.74,0,0,0-2.36.93Z" transform="translate(-80.24 -126.44)"/><path class="cls-2" d="M292.09,250.65a11.1,11.1,0,0,0-2.38-.23c-3.81,0-5.11,2.25-5.11,4.31,0,1.78,1,3,2.47,3a3.12,3.12,0,0,0,2-.8l-.09.65h2.1Zm-2.78,4.91a2.43,2.43,0,0,1-1.51.62c-.64,0-1-.5-1-1.36a2.48,2.48,0,0,1,3-2.64Z" transform="translate(-80.24 -126.44)"/><path class="cls-2" d="M296.41,250.54h-2.1l-1,7.08h2.1l.59-4.21c.23-.47.78-1,1.28-1,.34,0,.64.24,1,.77l1-2c-.48-.56-.84-.78-1.26-.78s-1.06.36-1.71,1.17l0,0Z" transform="translate(-80.24 -126.44)"/><path class="cls-2" d="M306.14,254.38c.5-2.26-.7-4-2.91-4a3.84,3.84,0,0,0-3.82,3.9,3.26,3.26,0,0,0,3.51,3.45,7.19,7.19,0,0,0,2.46-.52l.37-1.76a7.51,7.51,0,0,1-2.61.72,1.54,1.54,0,0,1-1.62-1.83Zm-4.41-1.22c.31-.89.78-1.29,1.46-1.29a1,1,0,0,1,1,1.29Z" transform="translate(-80.24 -126.44)"/><polygon class="cls-2" points="239.66 120.55 230.6 120.55 230.35 122.33 233.71 122.33 232.47 131.19 234.72 131.19 235.96 122.33 239.41 122.33 239.66 120.55"/><path class="cls-2" d="M325.64,250.65a11.09,11.09,0,0,0-2.38-.23c-3.81,0-5.11,2.25-5.11,4.31,0,1.78,1,3,2.47,3a3.12,3.12,0,0,0,2-.8l-.09.65h2.1Zm-2.78,4.91a2.43,2.43,0,0,1-1.51.62c-.64,0-1-.5-1-1.36a2.48,2.48,0,0,1,3-2.64Z" transform="translate(-80.24 -126.44)"/><polygon class="cls-2" points="250.31 120.55 248.21 120.55 246.72 131.19 248.82 131.19 249.3 127.7 251.9 131.19 254.44 131.19 251.72 127.48 254.52 124.11 251.93 124.11 249.41 127.17 249.38 127.13 250.31 120.55"/><path class="cls-2" d="M338.36,250.54h-2.1l-1,7.08h2.1Zm-.81-3.06a1.09,1.09,0,1,0,1.09,1.09A1.08,1.08,0,0,0,337.55,247.48Z" transform="translate(-80.24 -126.44)"/><path class="cls-2" d="M347.29,250.54h-2.1l-.64,4.62a2.64,2.64,0,0,1-1.77,1c-.5,0-.76-.47-.56-1.89l.53-3.76h-2.1L340,255c-.22,1.48.4,2.71,2,2.71a3.62,3.62,0,0,0,2.28-.92l-.12.79h2.1Z" transform="translate(-80.24 -126.44)"/><path class="cls-2" d="M351.66,250.54h-2.1l-1,7.08h2.1l.59-4.21c.23-.47.78-1,1.27-1,.34,0,.64.24,1,.77l1-2c-.48-.56-.84-.78-1.26-.78s-1.06.36-1.71,1.17l0,0Z" transform="translate(-80.24 -126.44)"/><path class="cls-2" d="M362.06,250.65a11.09,11.09,0,0,0-2.38-.23c-3.81,0-5.11,2.25-5.11,4.31,0,1.78,1,3,2.47,3a3.13,3.13,0,0,0,2-.8l-.09.65h2.1Zm-2.78,4.91a2.43,2.43,0,0,1-1.51.62c-.64,0-1-.5-1-1.36a2.48,2.48,0,0,1,3-2.64Z" transform="translate(-80.24 -126.44)"/></svg>